# xmcd
#
# Track frame offsets:
#  150
#  18986
#  33290
#  53300
#  81895
#  100908
#  130536
#  151422
#  185909
#  210246
#  249137
#  277389
#
# Disc length: 3933 seconds
#
# Revision: 0
# Processed by: cddbd v1.5.2PL0 Copyright (c) Steve Scherf et al.
# Submitted via: AltoMP3_Maker 3.0
#
DISCID=930f5b0c
DTITLE=Porkroll Projects - The Porkroll Project
DYEAR=1900
DGENRE=
TTITLE0=Born Ready
TTITLE1=Ain't Movin', Just Groovin'
TTITLE2=Prodigal Son Blues
TTITLE3=Solitary Man
TTITLE4=Filthy Rich/Dirt Poor
TTITLE5=You Ain't Seen Mean
TTITLE6=On A Roll
TTITLE7=Have Another Beer
TTITLE8=What The Blues Is All About
TTITLE9=The Letter
TTITLE10=Middle Man Blues
TTITLE11=Good Morning, Blues
EXTD=
EXTT0=
EXTT1=
EXTT2=
EXTT3=
EXTT4=
EXTT5=
EXTT6=
EXTT7=
EXTT8=
EXTT9=
EXTT10=
EXTT11=
PLAYORDER=
